# xmcd
#
# Track frame offsets:
#	150
#	9101
#	16641
#	23961
#	35826
#	47585
#	55735
#	68707
#	78161
#	88820
#	97633
#	107482
#	117950
#	134409
#	143785
#
# Disc length: 2092 seconds
#
# Revision: 1
# Processed by: cddbd v1.5.2PL0 Copyright (c) Steve Scherf et al.
# Submitted via: EZCDAudioConverter 2.1.7.1
#
DISCID=ae082a0f
DTITLE=V/A - Roots Of Paul McCartney
DYEAR=2011
DGENRE=MOJO
TTITLE0=Little Richard - Long Tall Sally
TTITLE1=Eddie Cochran - Twenty Flight Rock
TTITLE2=Chan Romero - The Hippy Hippy Shake
TTITLE3=Chuck Berry - Little Queenie
TTITLE4=Joe Turner - Honey Hush
TTITLE5=Larry Williams - She Said Yeah
TTITLE6=Arthur 'Big Boy' Crudup - That's All Right
TTITLE7=Carl Perkins - Movie Magg
TTITLE8=Wilbert Harrison - Kansas City 
TTITLE9=The Jodimars - Clarabella
TTITLE10=The Coasters - Besame Mucho (Part 1)
TTITLE11=The Platters - Red Sails In The Sunset
TTITLE12=Ray Charles - Don't Let The Sun Catch You Crying
TTITLE13=Anita Bryant - Till There Was You
TTITLE14=Gene Vincent - Over The Rainbow
EXTD=
EXTT0=
EXTT1=
EXTT2=
EXTT3=
EXTT4=
EXTT5=
EXTT6=
EXTT7=
EXTT8=
EXTT9=
EXTT10=
EXTT11=
EXTT12=
EXTT13=
EXTT14=
PLAYORDER=
